<?xml version="1.0" standalone="no"?><!DOCTYPE svg PUBLIC "-//W3C//DTD SVG 1.1//EN" "http://www.w3.org/Graphics/SVG/1.1/DTD/svg11.dtd"><svg t="1712557244825" class="icon" viewBox="0 0 1024 1024" version="1.1" xmlns="http://www.w3.org/2000/svg" p-id="5219" xmlns:xlink="http://www.w3.org/1999/xlink" width="200" height="200"><path d="M961.206667 241.68A256.066667 256.066667 0 0 0 512 199.76 256 256 0 0 0 42.666667 341.333333c0 35.96 1.826667 66.606667 10.753333 99.293334 10.06 36.84 28.233333 72.96 57.193333 113.673333 30.993333 43.56 75.62 93.766667 136.44 153.48 63.013333 61.866667 145.153333 135.733333 251.133334 225.806667a21.333333 21.333333 0 0 0 27.626666 0c106-90.073333 188.12-163.94 251.133334-225.806667 60.82-59.713333 105.446667-109.92 136.44-153.48 28.96-40.713333 47.133333-76.833333 57.193333-113.673333 8.926667-32.666667 10.753333-63.333333 10.753333-99.293334a254.433333 254.433333 0 0 0-20.126666-99.653333z" fill="#5C5C66" p-id="5220"></path></svg>