<?xml version="1.0" standalone="no"?><!DOCTYPE svg PUBLIC "-//W3C//DTD SVG 1.1//EN" "http://www.w3.org/Graphics/SVG/1.1/DTD/svg11.dtd"><svg t="1709780226303" class="icon" viewBox="0 0 1024 1024" version="1.1" xmlns="http://www.w3.org/2000/svg" p-id="4405" xmlns:xlink="http://www.w3.org/1999/xlink" width="200" height="200"><path d="M512 85.333333c235.648 0 426.666667 191.018667 426.666667 426.666667 0 102.442667-36.117333 196.48-96.298667 270.016L781.653333 721.28A339.84 339.84 0 0 0 853.333333 512c0-188.522667-152.810667-341.333333-341.333333-341.333333S170.666667 323.477333 170.666667 512s152.810667 341.333333 341.333333 341.333333a339.84 339.84 0 0 0 209.28-71.68l60.736 60.714667A424.896 424.896 0 0 1 512 938.666667C276.352 938.666667 85.333333 747.648 85.333333 512S276.352 85.333333 512 85.333333z m76.501333 289.834667l60.330667 60.330667L572.373333 512l76.48 76.501333-60.330666 60.330667L512 572.373333l-76.501333 76.48-60.330667-60.330666L451.626667 512l-76.48-76.501333 60.330666-60.330667L512 451.626667l76.501333-76.48z" fill="#333333" p-id="4406"></path></svg>