<?xml version="1.0" standalone="no"?><!DOCTYPE svg PUBLIC "-//W3C//DTD SVG 1.1//EN" "http://www.w3.org/Graphics/SVG/1.1/DTD/svg11.dtd"><svg t="1713838830085" class="icon" viewBox="0 0 1024 1024" version="1.1" xmlns="http://www.w3.org/2000/svg" p-id="1455" xmlns:xlink="http://www.w3.org/1999/xlink" width="200" height="200"><path d="M512 42.666667c261.930667 0 469.333333 207.402667 469.333333 469.333333s-207.402667 469.333333-469.333333 469.333333S42.666667 773.930667 42.666667 512 250.069333 42.666667 512 42.666667z m-7.296 710.613333H340.352v34.389333h164.352v-34.389333zM422.4 469.333333a123.733333 123.733333 0 1 0 0 247.466667 123.733333 123.733333 0 0 0 0-247.466667z m219.434667 2.816c-19.157333 0-35.541333 4.992-49.450667 13.013334-20.266667 12.245333-30.378667 30.037333-30.378667 53.333333 0 12.245333 1.664 24.746667 9.173334 34.474667 9.728 11.946667 12.202667 17.834667 41.088 28.672 5.248 2.133333 25.386667 6.613333 42.581333 12.842666 11.989333 4.352 22.442667 10.197333 25.856 13.952 4.309333 4.778667 7.253333 10.24 7.808 16.256a37.888 37.888 0 0 1-1.706667 13.738667c-5.845333 15.829333-21.76 22.784-44.8 22.784s-46.037333-12.074667-57.429333-33.792l-29.312 16.981333c0.469333 0.341333 10.496 23.082667 33.194667 34.773334 17.792 9.173333 39.850667 13.013333 52.352 13.013333 20.821333 0 38.613333-2.901333 53.333333-11.818667 20.565333-12.8 30.805333-32.768 30.805333-56.96 0-17.493333-6.698667-32.768-19.498666-44.458666-3.626667-3.285333-15.914667-10.453333-31.232-16.298667-22.144-8.490667-48.554667-14.933333-50.858667-15.914667-17.237333-8.064-25.301333-17.92-25.301333-29.866666 0-3.370667 5.290667-33.664 43.946666-33.365334 9.941333 0.085333 23.893333 1.834667 34.090667 9.685334 6.826667 5.290667 14.848 15.445333 17.066667 21.162666l28.970666-17.066666c-7.04-14.08-17.28-24.661333-31.104-33.706667-14.293333-9.386667-36.010667-11.306667-49.194666-11.434667zM422.4 507.733333a85.333333 85.333333 0 1 1 0 170.666667 85.333333 85.333333 0 0 1 0-170.666667z m329.130667-190.72h-19.2l31.018666 78.464-15.744 35.84 18.133334 0.128L810.666667 317.013333h-17.792l-20.352 56.533334-20.949334-56.533334z m-141.653334-1.877333a37.546667 37.546667 0 0 0-19.584 5.162667 35.712 35.712 0 0 0-13.568 14.506666 45.909333 45.909333 0 0 0-4.864 21.546667c0 8.106667 1.621333 15.274667 4.864 21.504a35.285333 35.285333 0 0 0 13.568 14.464c5.802667 3.413333 12.373333 5.12 19.626667 5.12a35.84 35.84 0 0 0 33.109333-19.584c3.242667-6.229333 4.864-13.397333 4.864-21.504s-1.621333-15.274667-4.906666-21.504a36.266667 36.266667 0 0 0-33.109334-19.712z m-262.826666 0.085333c-2.986667 0-10.965333 0.597333-16.938667 3.584-6.826667 3.413333-11.690667 9.344-14.08 11.818667l11.946667 9.514667c2.730667-2.56 3.2-7.424 15.573333-9.6a18.858667 18.858667 0 0 1 14.08 2.645333c3.541333 2.56 5.376 6.954667 5.376 12.032v2.176l-8.32-0.128H349.013333l-1.877333 0.042667a96.853333 96.853333 0 0 0-11.434667 1.194666 30.890667 30.890667 0 0 0-10.794666 4.096 29.781333 29.781333 0 0 0-8.704 9.088 23.552 23.552 0 0 0-3.029334 11.008c0 4.053333 0.853333 7.594667 2.56 10.666667 1.664 3.029333 3.370667 5.290667 6.101334 7.338667a29.568 29.568 0 0 0 9.514666 4.565333 39.552 39.552 0 0 0 10.922667 1.493333c5.376 0 19.114667-2.816 21.76-11.178666h0.512l1.152 9.813333H379.733333c0.042667-36.949333-0.128-56.32-0.554666-58.154667a32.64 32.64 0 0 0-3.029334-8.064c-1.408-2.645333-2.090667-4.992-4.693333-6.997333a32 32 0 0 0-9.813333-4.992 47.104 47.104 0 0 0-14.549334-1.962667z m-115.328-28.714666h-18.645334v108.928h18.645334V347.008h52.266666v48.426667h17.792V286.506667h-17.792V330.24H231.722667V286.506667z m466.389333 28.842666c-12.373333 0-18.773333 3.114667-24.576 12.16-0.085333-4.608-0.597333-6.912-1.109333-10.154666h-14.293334c0.426667 4.693333 0.64 10.709333 0.64 18.048v59.733333h16.725334V352.298667c0-6.570667 1.621333-11.733333 4.906666-15.488a17.152 17.152 0 0 1 13.653334-5.632c10.154667 0 15.232 5.376 15.232 16.128v47.829333h17.109333v-50.773333c0-9.130667-2.389333-16.213333-7.168-21.248-4.778667-5.034667-12.757333-7.765333-21.12-7.765334z m-261.418667 0.469334h-4.096a22.741333 22.741333 0 0 0-12.8 3.242666c-3.754667 2.432-6.826667 3.712-9.216 8.405334a57.770667 57.770667 0 0 0-0.768-10.24h-16.128c0.426667 4.693333 0.64 10.666667 0.64 18.005333V395.093333h16.64v-42.069333c0-6.656 1.792-11.776 5.290667-15.36 3.498667-3.584 9.984-5.376 15.701333-5.376 1.792 0 5.632 0.128 7.68 0.469333v-16.512a7.210667 7.210667 0 0 0-2.944-0.426666z m99.413334-0.384c-11.52 0-20.010667 4.266667-25.472 12.8a21.504 21.504 0 0 0-8.533334-9.472 25.941333 25.941333 0 0 0-13.482666-3.328c-10.922667 0-18.944 2.986667-24.32 11.434666a89.941333 89.941333 0 0 0-0.768-9.6l-14.592-0.128c0.085333 0.853333 0.128 3.285333 0.170666 7.296v11.818667c0 12.928-0.128 32.256-0.384 57.984h17.749334V347.52c0-5.546667 2.005333-8.533333 4.821333-11.861333 2.816-3.328 6.869333-4.48 11.733333-4.48 8.704 0 14.421333 7.168 14.421334 11.989333V394.24h17.194666V347.52c0-5.546667 1.450667-8.021333 4.266667-11.349333a14.506667 14.506667 0 0 1 11.605333-4.992c8.704 0 15.701333 5.418667 15.701334 14.72V394.24h16.938666V343.210667a32.128 32.128 0 0 0-8.96-20.778667 23.722667 23.722667 0 0 0-18.090666-6.997333zM362.709333 359.978667v4.565333a18.432 18.432 0 0 1-4.992 13.653333c-3.328 3.328-6.4 4.608-13.397333 4.608a22.272 22.272 0 0 1-5.077333-0.597333 13.824 13.824 0 0 1-4.565334-1.92 11.52 11.52 0 0 1-3.285333-3.328 8.661333 8.661333 0 0 1-1.28-4.821333c0-2.901333 0.853333-5.546667 2.986667-7.210667 2.133333-1.621333 2.645333-2.517333 5.76-3.370667 3.072-0.853333 6.613333-1.024 10.112-1.28 3.498667-0.170667 6.656-0.298667 9.472-0.298666h4.266666z m247.168-29.44c5.802667 0 11.904 1.706667 15.445334 6.613333a31.872 31.872 0 0 1 5.290666 19.2 31.573333 31.573333 0 0 1-5.290666 19.114667c-3.541333 4.821333-9.642667 6.229333-15.445334 6.229333-5.802667 0-11.776-1.408-15.317333-6.229333a31.573333 31.573333 0 0 1-5.290667-19.114667c0-7.936 1.749333-14.336 5.290667-19.2 3.541333-4.864 9.514667-6.613333 15.36-6.613333z" fill="#313E55" p-id="1456"></path></svg>