<?xml version="1.0" standalone="no"?><!DOCTYPE svg PUBLIC "-//W3C//DTD SVG 1.1//EN" "http://www.w3.org/Graphics/SVG/1.1/DTD/svg11.dtd"><svg t="1713246245313" class="icon" viewBox="0 0 1024 1024" version="1.1" xmlns="http://www.w3.org/2000/svg" p-id="5263" xmlns:xlink="http://www.w3.org/1999/xlink" width="200" height="200"><path d="M768 506.595556a28.444444 28.444444 0 1 0 56.888889 0V227.555556a56.888889 56.888889 0 0 0-56.888889-56.888889h-512a56.888889 56.888889 0 0 0-56.888889 56.888889v568.888888a56.888889 56.888889 0 0 0 56.888889 56.888889h161.336889a28.444444 28.444444 0 0 0 0-56.888889H256V227.555556h512v279.04zM369.777778 341.333333h284.444444a28.444444 28.444444 0 1 0 0-56.888889h-284.444444a28.444444 28.444444 0 1 0 0 56.888889z m0 113.777778h284.444444a28.444444 28.444444 0 1 0 0-56.888889h-284.444444a28.444444 28.444444 0 1 0 0 56.888889z m0 113.777778h284.444444a28.444444 28.444444 0 1 0 0-56.888889h-284.444444a28.444444 28.444444 0 0 0 0 56.888889z m172.373333 202.581333l-105.927111-130.56a28.444444 28.444444 0 0 0-44.145778 35.84l124.245334 153.144889a28.444444 28.444444 0 0 0 40.504888 3.811556l257.991112-218.624a28.444444 28.444444 0 1 0-36.750223-43.406223L542.151111 771.413333z" fill="#5A6677" p-id="5264"></path></svg>