<?xml version="1.0" standalone="no"?><!DOCTYPE svg PUBLIC "-//W3C//DTD SVG 1.1//EN" "http://www.w3.org/Graphics/SVG/1.1/DTD/svg11.dtd"><svg t="1710332295704" class="icon" viewBox="0 0 1024 1024" version="1.1" xmlns="http://www.w3.org/2000/svg" p-id="9376" xmlns:xlink="http://www.w3.org/1999/xlink" width="32" height="32"><path d="M757.76 936.618667H255.317333a170.666667 170.666667 0 0 1-170.666666-170.666667V263.509333a170.666667 170.666667 0 0 1 170.666666-170.666666H757.76a170.666667 170.666667 0 0 1 170.666667 170.666666v502.442667a170.666667 170.666667 0 0 1-170.666667 170.666667zM255.317333 161.109333a102.4 102.4 0 0 0-102.4 102.4v502.442667a102.4 102.4 0 0 0 102.4 102.4H757.76a102.4 102.4 0 0 0 102.4-102.4V263.509333a102.4 102.4 0 0 0-102.4-102.4z" fill="#282424" p-id="9377"></path><path d="M457.728 695.296a102.4 102.4 0 0 1-51.2-13.994667 102.4 102.4 0 0 1-51.2-88.746666V436.906667a102.4 102.4 0 0 1 153.6-88.746667l134.826667 77.824a102.4 102.4 0 0 1 0 177.493333L508.928 682.666667a102.4 102.4 0 0 1-51.2 12.629333z m0-292.522667a34.133333 34.133333 0 0 0-17.066667 4.437334 34.133333 34.133333 0 0 0-17.066666 29.696v155.648a34.133333 34.133333 0 0 0 51.2 29.696L609.621333 546.133333a34.133333 34.133333 0 0 0 17.066667-29.696 34.133333 34.133333 0 0 0-17.066667-29.354666l-134.826666-78.165334a34.133333 34.133333 0 0 0-17.066667-6.144z" fill="#282424" p-id="9378"></path></svg>