<?xml version="1.0" standalone="no"?><!DOCTYPE svg PUBLIC "-//W3C//DTD SVG 1.1//EN" "http://www.w3.org/Graphics/SVG/1.1/DTD/svg11.dtd"><svg t="1710332374630" class="icon" viewBox="0 0 1024 1024" version="1.1" xmlns="http://www.w3.org/2000/svg" p-id="11240" width="32" height="32" data-spm-anchor-id="a313x.search_index.0.i4.55b53a81GX2zRo" xmlns:xlink="http://www.w3.org/1999/xlink"><path d="M781.8 283.8H408.3c-11.5 0-20.8 9.3-20.8 20.8s9.3 20.8 20.8 20.8h373.5c11.5 0 20.8-9.3 20.8-20.8-0.1-11.6-9.4-20.8-20.8-20.8z" p-id="11241"></path><path d="M802.5 97h-581C153 97 97 153 97 221.5v581C97 871 153 927 221.5 927h581C871 927 927 871 927 802.5v-581C927 153 871 97 802.5 97z m83 705.5c0 45.8-37.2 83-83 83h-581c-45.8 0-83-37.2-83-83v-581c0-45.8 37.2-83 83-83h581c45.8 0 83 37.2 83 83v581z" p-id="11242"></path><path d="M263 304.5m-41.5 0a41.5 41.5 0 1 0 83 0 41.5 41.5 0 1 0-83 0Z" p-id="11243"></path><path d="M781.8 491.3H408.3c-11.5 0-20.8 9.3-20.8 20.8s9.3 20.8 20.8 20.8h373.5c11.5 0 20.8-9.3 20.8-20.8-0.1-11.6-9.4-20.8-20.8-20.8z" p-id="11244"></path><path d="M263 512m-41.5 0a41.5 41.5 0 1 0 83 0 41.5 41.5 0 1 0-83 0Z" p-id="11245"></path><path d="M781.8 698.8H408.3c-11.5 0-20.8 9.3-20.8 20.8s9.3 20.8 20.8 20.8h373.5c11.5 0 20.8-9.3 20.8-20.8-0.1-11.6-9.4-20.8-20.8-20.8z" p-id="11246"></path><path d="M263 719.5m-41.5 0a41.5 41.5 0 1 0 83 0 41.5 41.5 0 1 0-83 0Z" p-id="11247"></path></svg>