<?xml version="1.0" standalone="no"?><!DOCTYPE svg PUBLIC "-//W3C//DTD SVG 1.1//EN" "http://www.w3.org/Graphics/SVG/1.1/DTD/svg11.dtd"><svg t="1710421580555" class="icon" viewBox="0 0 1024 1024" version="1.1" xmlns="http://www.w3.org/2000/svg" p-id="34224" xmlns:xlink="http://www.w3.org/1999/xlink" width="200" height="200"><path d="M21.333333 21.333333m490.666667 0l0 0q490.666667 0 490.666667 490.666667l0 0q0 490.666667-490.666667 490.666667l0 0q-490.666667 0-490.666667-490.666667l0 0q0-490.666667 490.666667-490.666667Z" fill="#1A6EFF" p-id="34225"></path><path d="M519.466667 709.418667c-78.592 4.266667-147.712-43.093333-177.834667-107.52-33.152-70.912-26.88-140.885333 20.394667-203.306667C407.125333 339.029333 469.76 315.392 544 324.266667c36.821333 4.394667 69.290667 19.498667 97.621333 43.52 15.36 13.056 15.018667 18.901333-2.005333 28.672-14.805333 8.533333-29.696 16.853333-44.373333 25.472-40.746667 23.893333-81.706667 47.274667-121.898667 71.936-21.546667 13.184-25.856 34.218667-13.824 56.021333 13.013333 23.594667 38.272 29.098667 65.024 13.653333 79.530667-46.037333 158.72-92.458667 238.506667-137.984 13.226667-7.552 14.634667-15.189333 8.789333-27.989333a261.248 261.248 0 0 0-91.733333-109.397333c-89.984-61.013333-185.941333-70.826667-284.245334-24.448-98.090667 46.208-151.338667 127.402667-160.213333 234.368-7.338667 88.704 26.453333 163.797333 90.453333 225.578666 89.216 86.186667 238.378667 99.712 340.906667 30.464 26.709333-18.048 26.709333-18.048 10.154667-45.568-17.92-29.781333-35.669333-35.285333-66.730667-20.437333-29.397333 14.08-59.861333 23.253333-90.965333 21.290667z" fill="#FFFFFF" p-id="34226"></path><path d="M789.333333 583.381333c-1.493333-21.333333-13.056-38.613333-23.04-56.448-3.242667-5.845333-8.448-3.626667-13.098666-0.938666-18.304 10.453333-36.522667 20.992-54.912 31.232-7.850667 4.309333-9.216 9.557333-4.693334 17.194666 10.496 17.706667 20.906667 35.413333 30.933334 53.333334 4.394667 7.765333 9.642667 9.557333 17.152 4.778666 11.008-6.954667 22.4-13.397333 33.024-20.906666a32 32 0 0 0 14.634666-28.245334z" fill="#FFFFFF" p-id="34227"></path></svg>