<?xml version="1.0" standalone="no"?><!DOCTYPE svg PUBLIC "-//W3C//DTD SVG 1.1//EN" "http://www.w3.org/Graphics/SVG/1.1/DTD/svg11.dtd"><svg t="1708487646611" class="icon" viewBox="0 0 1024 1024" version="1.1" xmlns="http://www.w3.org/2000/svg" p-id="5112" xmlns:xlink="http://www.w3.org/1999/xlink" width="200" height="200"><path d="M152.362667 591.594667c2.218667-0.768 5.76 0.810667 8.106666 2.261333 24.661333 15.381333 49.130667 31.04 73.813334 46.357333 2.368 1.472 6.272 2.304 8.725333 1.429334 50.176-18.133333 100.266667-36.522667 150.357333-54.890667 0.853333-0.32 1.6-0.853333 3.050667-1.642667L203.648 285.866667c2.261333-0.981333 4.053333-1.877333 5.888-2.56 23.722667-8.746667 47.530667-17.28 71.146667-26.304 5.077333-1.92 8.32-1.024 12.416 2.24 101.781333 81.472 203.712 162.730667 305.450666 244.266666 5.226667 4.202667 9.258667 4.736 15.466667 2.432 80.96-29.930667 161.984-59.584 243.050667-89.173333 37.738667-13.781333 75.029333 8.554667 80.981333 48.298667 4.074667 27.157333-12.565333 54.101333-39.978667 64.192-63.786667 23.466667-127.637333 46.826667-191.445333 70.229333l-445.653333 163.413333c-32.064 11.776-56.533333 2.986667-76.992-24.704-18.666667-25.301333-39.36-49.088-59.178667-73.557333L85.333333 616.021333c23.04-8.469333 44.970667-16.704 67.029334-24.426666z" fill="#3D3D3D" p-id="5113"></path></svg>