<?xml version="1.0" standalone="no"?><!DOCTYPE svg PUBLIC "-//W3C//DTD SVG 1.1//EN" "http://www.w3.org/Graphics/SVG/1.1/DTD/svg11.dtd"><svg t="1706152172523" class="icon" viewBox="0 0 1024 1024" version="1.1" xmlns="http://www.w3.org/2000/svg" p-id="4340" xmlns:xlink="http://www.w3.org/1999/xlink" width="200" height="200"><path d="M895.441019 606.54019v-95.841835c0-211.367989-172.121126-382.716518-384.443859-382.716519s-383.055233 171.34853-383.055233 382.716519v224.909399c0 17.662265 14.3181 31.980365 31.980366 31.980365 17.662265 0 31.615045-14.3181 31.615045-31.980365V607.686293c0-1.645476 0.239454-3.2623 0-4.841262v-92.146676c0-85.08791 32.277124-165.098175 92.74224-225.29314 60.542888-60.270688 141.058666-93.462648 226.717582-93.462648 85.657892 0 166.175717 33.192983 226.717581 93.462648 60.46614 60.193941 93.765547 140.204206 93.765547 225.29314v192.572923h0.028653v32.336476c0 17.662265 14.3181 31.980365 31.980365 31.980365 17.662265 0 31.980365-14.3181 31.980366-31.980365V607.686293c0-0.384763-0.01535-0.765433-0.028653-1.146103z" p-id="4341"></path><path d="M383.78485 831.54885c0 35.32453-28.636201 63.960731-63.960731 63.960731-35.32453 0-63.960731-28.636201-63.96073-63.960731V639.666658c0-35.32453 28.636201-63.960731 63.96073-63.960731 35.32453 0 63.960731 28.636201 63.960731 63.960731v191.882192zM767.54821 831.54885c0 35.32453-28.636201 63.960731-63.96073 63.960731-35.32453 0-63.960731-28.636201-63.960731-63.960731V639.666658c0-35.32453 28.636201-63.960731 63.960731-63.960731 35.32453 0 63.960731 28.636201 63.96073 63.960731v191.882192z" p-id="4342"></path></svg>