<?xml version="1.0" standalone="no"?><!DOCTYPE svg PUBLIC "-//W3C//DTD SVG 1.1//EN" "http://www.w3.org/Graphics/SVG/1.1/DTD/svg11.dtd"><svg t="1710418953303" class="icon" viewBox="0 0 1024 1024" version="1.1" xmlns="http://www.w3.org/2000/svg" p-id="9279" xmlns:xlink="http://www.w3.org/1999/xlink" width="200" height="200"><path d="M76.8 342.528V177.664c0-54.272 44.032-98.304 98.816-98.304h164.352c17.408-1.536 32.768 11.776 34.304 29.184 0 3.072 0 5.632-0.512 8.704-4.096 16.384-18.944 28.16-35.84 27.648H175.616c-18.432 0.512-33.28 15.36-33.792 33.28V343.04c0 18.432-14.848 32.768-33.28 32.768-17.408-0.512-31.744-14.848-31.744-33.28z m838.144 33.792c-17.92-0.512-32.768-14.848-32.768-32.768V178.176c0-18.432-15.36-33.28-33.792-33.28h-168.448c-17.92-2.56-30.72-18.944-28.16-36.864 2.048-15.872 15.872-28.16 31.744-28.672H844.8c56.32 0 101.888 45.568 101.888 101.888V343.04c0.512 17.92-13.824 32.768-31.744 33.28z m-805.888 271.36c17.92 0.512 32.768 14.848 32.768 32.768v165.376c0 18.432 15.36 33.28 33.792 33.28h168.448c17.92 2.56 30.72 18.944 28.16 36.864-2.048 15.872-15.872 28.16-31.744 28.672H178.176c-56.32 0-101.888-45.568-101.888-101.888V680.96c0.512-17.92 14.848-32.768 32.768-33.28z m838.144 35.328V844.8c0 55.296-44.544 99.84-99.84 99.84h-162.816c-17.408 1.536-32.768-11.264-34.304-29.184 0-3.072 0-5.632 0.512-8.704 4.096-16.384 18.432-28.16 35.328-27.648h162.304c18.432-0.512 33.28-15.36 33.792-33.28V680.96c0-18.432 14.848-32.768 33.28-32.768 2.56 0 5.632 0.512 8.192 1.024 14.336 4.608 24.064 18.432 23.552 33.792z m-285.696-130.56c8.704-3.072 17.92 2.048 20.992 10.24 0.512 1.536 0.512 3.072 1.024 4.608-2.048 10.24-11.776 16.896-22.016 14.848h-121.856v100.864c-1.024 11.264-10.24 19.456-21.504 18.944-12.288 0-23.552-18.944-23.552-18.944v-100.352H379.392c-9.728 1.536-18.944-5.12-20.48-14.848v-1.536c0-9.728 9.728-16.384 20.992-18.944h119.296v-50.176H377.856c-10.752 1.024-20.48-6.656-22.016-17.408v-1.024c1.536-10.752 11.264-17.92 22.016-17.408h102.4L399.36 355.328c-4.608-9.728-1.024-20.992 8.192-26.624 9.728-4.608 20.992-1.536 27.136 6.656l83.968 113.664 86.016-104.448c6.144-11.264 19.968-15.872 31.744-9.728 14.848 9.216 5.632 26.624 5.632 26.624L558.08 461.824h104.448c11.264-1.024 21.504 6.656 23.04 17.92 0 10.24-10.752 17.408-23.04 17.408h-122.88v50.176l121.856 5.12z" fill="#2C2C2C" p-id="9280"></path><path d="M509.44 702.976c-14.848 0-28.672-22.528-28.672-22.528v-95.744H370.688c-12.8 0.512-23.552-8.704-24.576-21.504 1.024-11.264 10.752-19.968 22.528-19.456 0.512 0 1.536 0 2.048 0.512h115.2v-44.544H370.688c-12.8 1.024-23.552-8.704-24.576-21.504 0-10.752 24.576-23.552 24.576-23.552h93.184l-76.8-99.328c-5.12-11.264-0.512-25.088 10.24-31.232 3.584-1.536 7.168-2.56 10.752-2.56 7.68 0 14.848 3.072 20.48 8.704L509.952 440.32l82.944-100.864c5.12-8.704 13.824-13.824 23.552-14.848 4.608 0 8.704 1.536 12.288 3.584 10.752 6.656 14.336 20.992 7.168 31.744l-79.872 98.816h91.648c12.8-1.024 23.552 8.192 25.088 20.48-1.536 12.288-12.8 21.504-25.088 19.968h-112.128v44.544h116.736c11.776-2.048 23.04 6.144 25.088 17.92v2.048c-1.536 12.288-12.8 21.504-25.088 20.992h-116.224v95.744c-2.048 12.8-13.312 22.528-26.624 22.528z m-131.072-154.112c-9.216 0-16.384 5.12-16.384 12.288 1.024 8.192 8.192 13.824 16.384 12.8h112.128V670.72c1.536 8.704 9.216 14.848 17.92 14.848 8.704 0.512 16.384-6.144 17.408-14.848v-96.256h118.272c8.704 0 17.408-6.144 17.408-12.288s-8.704-12.8-16.896-12.8h-118.272V489.472H640c8.704 0 17.408-4.608 17.408-12.288s-8.192-12.8-17.92-12.8h-98.304l88.576-107.52c1.024-2.048 6.656-14.848-4.096-22.016-2.56-1.536-5.632-2.56-8.704-2.56-7.68 1.024-13.824 5.12-17.92 11.264L510.464 452.096l-87.04-117.248c-3.584-4.608-9.216-7.168-14.848-7.168-2.56 0-5.12 0.512-7.68 1.536-7.68 4.096-10.752 13.312-7.168 21.504l84.992 117.76h-107.52s-17.408 2.048-17.408 8.704c0 7.168 6.144 12.8 12.8 12.288 1.536 0 3.072-0.512 4.608-1.024h119.296v59.904l-112.128 0.512z" fill="#2C2C2C" p-id="9281"></path></svg>