<?xml version="1.0" standalone="no"?><!DOCTYPE svg PUBLIC "-//W3C//DTD SVG 1.1//EN" "http://www.w3.org/Graphics/SVG/1.1/DTD/svg11.dtd"><svg t="1710421713070" class="icon" viewBox="0 0 1024 1024" version="1.1" xmlns="http://www.w3.org/2000/svg" p-id="39262" xmlns:xlink="http://www.w3.org/1999/xlink" width="200" height="200"><path d="M818 897.1H205c-59.2 0-107.3-48.1-107.3-107.3V378.3C97.7 319.1 145.8 271 205 271h613c59.2 0 107.3 48.1 107.3 107.3v411.5c0 59.2-48.1 107.3-107.3 107.3zM205 310c-37.7 0-68.3 30.6-68.3 68.3v411.5c0 37.7 30.6 68.3 68.3 68.3h613c37.7 0 68.3-30.6 68.3-68.3V378.3c0-37.7-30.6-68.3-68.3-68.3H205z" fill="#2280BF" p-id="39263"></path><path d="M611.7 381.5H410c-32.3 0-58.5-26.3-58.5-58.5V183.5c0-32.3 26.3-58.5 58.5-58.5h201.7c32.3 0 58.5 26.3 58.5 58.5V323c0 32.2-26.3 58.5-58.5 58.5zM410 164c-10.8 0-19.5 8.8-19.5 19.5V323c0 10.8 8.8 19.5 19.5 19.5h201.7c10.8 0 19.5-8.8 19.5-19.5V183.5c0-10.8-8.8-19.5-19.5-19.5H410z" fill="#2280BF" p-id="39264"></path><path d="M796 300.3H646.4v-99.7c0-27.4-22.4-49.9-49.9-49.9H397.1c-27.4 0-49.9 22.4-49.9 49.9v99.7H197.7c-54.8 0-99.7 44.9-99.7 99.7v398.8c0 54.8 44.9 99.7 99.7 99.7H796c54.8 0 99.7-44.9 99.7-99.7V400c0-54.8-44.9-99.7-99.7-99.7M395.9 201h199.4v99.7H395.9V201zM695 649.7H545.4v149.6h-99.7V649.7H296.2V550h149.6V400.5h99.7V550H695v99.7z" fill="#4EB3FF" p-id="39265"></path></svg>