<?xml version="1.0" standalone="no"?><!DOCTYPE svg PUBLIC "-//W3C//DTD SVG 1.1//EN" "http://www.w3.org/Graphics/SVG/1.1/DTD/svg11.dtd"><svg t="1712734202510" class="icon" viewBox="0 0 1024 1024" version="1.1" xmlns="http://www.w3.org/2000/svg" p-id="2393" xmlns:xlink="http://www.w3.org/1999/xlink" width="200" height="200"><path d="M620.744 538.88c82.737-40.525 140.309-124.786 140.309-222.937 0-137.368-111.715-249.081-249.027-249.081-137.368 0-249.08 111.713-249.08 249.08 0 98.152 57.571 182.413 140.363 222.937-167.979 47.55-291.512 201.858-291.512 384.816 0 18.464 15.032 33.443 33.497 33.443 18.464 0 33.498-14.979 33.498-33.443 0-183.775 149.46-333.344 333.234-333.344 183.776 0 333.235 149.569 333.235 333.344 0 18.464 14.978 33.443 33.443 33.443 18.52 0 33.497-14.979 33.497-33.443 0-182.958-123.532-337.266-291.457-384.816zM329.887 315.942c0-100.439 81.702-182.195 182.14-182.195 100.384 0 182.086 81.756 182.086 182.195 0 100.384-81.703 182.086-182.086 182.086-100.44 0-182.14-81.702-182.14-182.086z" p-id="2394"></path></svg>