<?xml version="1.0" standalone="no"?><!DOCTYPE svg PUBLIC "-//W3C//DTD SVG 1.1//EN" "http://www.w3.org/Graphics/SVG/1.1/DTD/svg11.dtd"><svg t="1709533599435" class="icon" viewBox="0 0 2048 1024" version="1.1" xmlns="http://www.w3.org/2000/svg" p-id="5090" xmlns:xlink="http://www.w3.org/1999/xlink" width="400" height="200"><path d="M1052.593231 0c32.610462 0.708923 64.354462 4.883692 94.838154 12.839385l0.866461-5.513847h834.953846L1895.975385 506.486154l-156.593231-0.078769-76.406154 447.094153h-522.082462l4.726154-27.56923a428.977231 428.977231 0 0 1-179.830154 34.894769 402.195692 402.195692 0 0 1-128.393846-23.236923l-2.678154 15.911384H0L162.264615 7.325538 963.347692 7.246769c21.819077-4.096 43.953231-6.459077 66.323693-7.089231l22.843077-0.157538z" fill="#FFFFFF" p-id="5091"></path><path d="M1048.733538 185.107692c39.069538 0.787692 73.649231 10.24 103.424 28.435693 29.932308 18.353231 53.326769 44.583385 70.262154 78.375384 16.541538 33.083077 25.915077 70.419692 28.199385 111.852308a458.436923 458.436923 0 0 1-14.414769 139.421538 360.132923 360.132923 0 0 1-57.42277 125.400616 263.325538 263.325538 0 0 1-92.947692 81.053538c-35.761231 18.116923-74.594462 26.860308-116.105846 26.072616a204.406154 204.406154 0 0 1-102.715077-28.041847 189.203692 189.203692 0 0 1-70.971077-77.508923 279.945846 279.945846 0 0 1-29.302154-112.167384c-2.756923-42.377846 1.654154-87.433846 13.312-134.931693 11.736615-48.049231 30.72-90.584615 56.950154-127.291076A265.294769 265.294769 0 0 1 931.052308 211.889231a240.64 240.64 0 0 1 99.800615-26.624l17.880615-0.315077z m-730.348307 7.325539h146.510769l-37.494154 217.403077h165.888l37.179077-217.403077h146.510769L678.675692 768.393846h-146.510769l39.227077-230.006154H405.661538l-39.542153 230.006154h-146.51077l98.776616-575.960615z m724.204307 123.037538l-10.870153 0.157539c-31.980308 2.048-57.265231 18.353231-77.508923 50.412307-24.024615 37.966769-37.888 92.475077-41.196308 163.761231-2.205538 39.936 2.835692 69.710769 14.414769 89.324308 10.318769 17.486769 25.6 26.230154 48.285539 26.939077 31.665231 1.417846 57.107692-10.712615 78.217846-37.572923 22.606769-28.750769 37.809231-70.498462 45.056-125.400616l2.520615-19.062154 2.835692-34.500923c2.205538-40.014769-2.835692-69.395692-14.336-88.064-10.476308-16.856615-25.521231-25.206154-47.419077-25.993846z m720.344616-123.037538h-459.067077l-22.449231 128.945231 155.332923-0.07877-76.406154 447.094154h146.589539l76.406154-447.094154h157.065846l22.528-128.866461z" fill="#FF3929" p-id="5092"></path></svg>