<?xml version="1.0" standalone="no"?><!DOCTYPE svg PUBLIC "-//W3C//DTD SVG 1.1//EN" "http://www.w3.org/Graphics/SVG/1.1/DTD/svg11.dtd"><svg t="1709783001652" class="icon" viewBox="0 0 1024 1024" version="1.1" xmlns="http://www.w3.org/2000/svg" p-id="7974" xmlns:xlink="http://www.w3.org/1999/xlink" width="200" height="200"><path d="M369.76608881 788.80215172c-45.00060322 0-90.08515603 0-136.56400063 0 0-91.50593528 0-183.19916588 1e-8-276.82367773 45.97948796 0 90.55845968 0 136.56400062 0C369.76608881 604.27570975 369.76608881 695.92711003 369.76608881 788.80215172zM578.39844612 788.47431306c-44.10465564 0-88.9703599 0-134.9182939 0 0-184.49604672 0-368.38707511 0-554.77184931 45.47940715 0 89.38214887 0 134.91829391 0C578.39844612 418.16087761 578.39844612 602.54243394 578.39844612 788.47431306zM789.50428552 788.99972336c-45.23508354 0-89.82389854 0-136.10039469 1e-8 0-126.12715028 0-252.52496752 0-380.58282044 44.69881827 0 89.69942077 0 136.10039469-1e-8C789.50428552 535.08031995 789.50428552 661.51924332 789.50428552 788.99972336z" fill="#c6ab66" p-id="7975"></path></svg>