<?xml version="1.0" standalone="no"?><!DOCTYPE svg PUBLIC "-//W3C//DTD SVG 1.1//EN" "http://www.w3.org/Graphics/SVG/1.1/DTD/svg11.dtd"><svg t="1710421528987" class="icon" viewBox="0 0 1024 1024" version="1.1" xmlns="http://www.w3.org/2000/svg" p-id="31566" xmlns:xlink="http://www.w3.org/1999/xlink" width="200" height="200"><path d="M512 512m-512 0a512 512 0 1 0 1024 0 512 512 0 1 0-1024 0Z" fill="#FFC300" p-id="31567"></path><path d="M451.754667 848.930133a292.829867 292.829867 0 0 1-212.411734-84.002133 297.233067 297.233067 0 0 1-79.2576-214.016c1.570133-153.6 109.226667-310.613333 369.3568-307.541333h334.506667l-7.918933 36.4544a285.252267 285.252267 0 0 1-38.058667 99.874133h44.373333l-6.3488 30.1056a256 256 0 0 1-112.64 157.013333 301.1584 301.1584 0 0 1-82.432 199.748267 286.72 286.72 0 0 1-209.271466 82.432" fill="#3D3D3D" p-id="31568"></path><path d="M524.6976 286.173867c-217.1904-3.1744-320.238933 129.979733-320.238933 261.563733a236.2368 236.2368 0 0 0 247.296 253.6448c150.6304 0 247.330133-109.397333 245.76-255.214933a194.730667 194.730667 0 0 0 101.4784-134.7584h-55.5008a262.485333 262.485333 0 0 0 58.6752-125.2352c-1.604267 0-209.271467 1.570133-277.435734 0z m0 0" fill="#FFFFFF" p-id="31569"></path><path d="M296.413867 471.6544a24.712533 24.712533 0 0 1 23.893333-25.361067 23.893333 23.893333 0 0 1 23.893333 25.361067 24.746667 24.746667 0 0 1-23.893333 25.361067 23.893333 23.893333 0 0 1-23.893333-25.361067m290.133333 25.361067a23.893333 23.893333 0 0 1-23.893333-25.361067 24.712533 24.712533 0 0 1 23.893333-25.361067 23.893333 23.893333 0 0 1 23.893333 25.361067 24.746667 24.746667 0 0 1-23.893333 25.361067" fill="#3D3D3D" p-id="31570"></path><path d="M426.3936 684.066133a91.921067 91.921067 0 1 1 0-183.876266h53.896533a91.921067 91.921067 0 1 1 0 183.876266z m0 0" fill="#FF6D6D" p-id="31571"></path><path d="M399.4624 592.110933a20.48 20.48 0 1 1 20.48 20.48 20.957867 20.957867 0 0 1-20.48-20.48m66.56 0a20.48 20.48 0 1 1 20.48 20.48 20.992 20.992 0 0 1-20.48-20.48" fill="#3D3D3D" p-id="31572"></path><path d="M512 0a512 512 0 1 0 512 512 512 512 0 0 0-512-512z m350.344533 379.6992l-6.314666 30.139733a256 256 0 0 1-112.64 157.013334 301.1584 301.1584 0 0 1-82.432 199.748266 286.72 286.72 0 0 1-209.271467 82.432 292.829867 292.829867 0 0 1-212.411733-84.002133 297.233067 297.233067 0 0 1-79.2576-214.016c1.570133-153.6 109.226667-310.613333 369.3568-307.541333h334.506666l-7.918933 36.4544a285.252267 285.252267 0 0 1-38.058667 99.874133z" fill="#FFC300" p-id="31573"></path></svg>