<?xml version="1.0" standalone="no"?><!DOCTYPE svg PUBLIC "-//W3C//DTD SVG 1.1//EN" "http://www.w3.org/Graphics/SVG/1.1/DTD/svg11.dtd"><svg t="1710419090021" class="icon" viewBox="0 0 1024 1024" version="1.1" xmlns="http://www.w3.org/2000/svg" p-id="22061" xmlns:xlink="http://www.w3.org/1999/xlink" width="200" height="200"><path d="M860.4672 492.4928a30.72 30.72 0 0 0-30.72 30.72v247.8592a59.5456 59.5456 0 0 1-59.4944 59.4944H267.9296a59.5456 59.5456 0 0 1-59.4944-59.4944V340.224a59.5456 59.5456 0 0 1 59.4944-59.4944h502.3232a59.5456 59.5456 0 0 1 59.4944 59.4944 30.72 30.72 0 0 0 61.44 0 121.088 121.088 0 0 0-120.9344-120.9344h-5.12V160.8192a82.7392 82.7392 0 0 0-82.6368-82.5856H348.16a82.7392 82.7392 0 0 0-82.688 82.5856v58.5216a121.0368 121.0368 0 0 0-118.4768 120.8832v430.848a121.088 121.088 0 0 0 120.9344 120.9344h33.28v33.2288a30.72 30.72 0 0 0 61.44 0v-33.2288H660.48v33.2288a30.72 30.72 0 1 0 61.44 0v-33.2288h48.3328a121.088 121.088 0 0 0 120.9344-120.9344v-247.8592a30.72 30.72 0 0 0-30.72-30.72zM326.912 160.8192A21.1968 21.1968 0 0 1 348.16 139.6736h334.4384a21.1968 21.1968 0 0 1 21.1968 21.1456v58.4704H326.912z" fill="#474747" p-id="22062"></path><path d="M387.328 727.552a30.72 30.72 0 0 1-30.72-30.72V423.168a30.72 30.72 0 0 1 61.44 0v273.664a30.72 30.72 0 0 1-30.72 30.72zM648.7552 727.552a30.72 30.72 0 0 1-30.72-30.72V423.168a30.72 30.72 0 0 1 61.44 0v273.664a30.72 30.72 0 0 1-30.72 30.72z" fill="#4F95FC" p-id="22063"></path></svg>