<?xml version="1.0" standalone="no"?><!DOCTYPE svg PUBLIC "-//W3C//DTD SVG 1.1//EN" "http://www.w3.org/Graphics/SVG/1.1/DTD/svg11.dtd"><svg t="1708487650637" class="icon" viewBox="0 0 1024 1024" version="1.1" xmlns="http://www.w3.org/2000/svg" p-id="5262" xmlns:xlink="http://www.w3.org/1999/xlink" width="200" height="200"><path d="M413.546667 366.357333l-53.76-58.069333c-30.933333-33.386667-61.930667-66.752-92.8-100.181333-13.525333-14.656-9.493333-32.597333 8.96-40.192 27.946667-11.52 55.978667-22.826667 83.882666-34.432 9.728-4.053333 18.346667-2.965333 26.965334 2.986666 71.402667 49.621333 142.933333 99.072 214.336 148.693334 3.264 2.261333 5.802667 2.389333 9.344 0.938666 50.261333-20.693333 100.48-41.472 150.890666-61.824 52.864-21.333333 111.658667 6.229333 128 59.669334 14.293333 46.677333-9.408 95.722667-55.616 114.688-83.562667 34.282667-167.168 68.458667-250.773333 102.656-84.053333 34.410667-168.106667 68.757333-252.096 103.296-11.733333 4.8-21.525333 3.157333-30.698667-5.546667-53.376-50.624-106.901333-101.12-160.341333-151.68-13.717333-12.970667-10.965333-31.381333 5.973333-39.978667 26.026667-13.226667 52.181333-26.261333 78.229334-39.530666 9.173333-4.672 17.834667-4.352 26.666666 0.917333 20.330667 12.053333 40.746667 23.957333 61.226667 35.733333 1.834667 1.066667 4.821333 1.578667 6.634667 0.853334 30.933333-12.458667 61.76-25.173333 92.586666-37.802667 0.597333-0.256 1.130667-0.576 2.389334-1.194667z m-213.162667 72.96c40 37.845333 80.042667 75.648 119.936 113.578667 2.816 2.666667 4.842667 3.008 8.469333 1.514667 161.813333-66.346667 323.690667-132.565333 485.546667-198.890667 4.053333-1.664 8.106667-3.690667 11.669333-6.208a46.656 46.656 0 0 0 13.717334-60.970667c-11.818667-21.12-37.312-29.866667-60.522667-20.394666-54.293333 22.101333-108.586667 44.202667-162.730667 66.730666-11.690667 4.864-21.397333 3.946667-31.808-3.328-70.634667-49.28-141.525333-98.197333-212.266666-147.328-3.050667-2.133333-5.461333-2.581333-8.96-1.066666-11.605333 4.992-23.36 9.664-35.050667 14.464-1.450667 0.597333-2.858667 1.28-4.693333 2.069333l4.714666 5.205333 141.568 152.746667c13.866667 14.933333 9.856 33.024-9.130666 40.810667-45.290667 18.56-90.624 37.013333-135.872 55.68a27.029333 27.029333 0 0 1-25.834667-1.941334 4958.570667 4958.570667 0 0 0-59.52-34.773333c-1.621333-0.96-4.266667-1.877333-5.674667-1.194667-12.586667 6.016-24.96 12.373333-38.016 18.986667l4.458667 4.330667z m189.290667 177.365334a21.333333 21.333333 0 0 1 42.304 5.546666 192 192 0 1 0 382.357333 25.237334 191.36 191.36 0 0 0-60.906667-140.288 21.333333 21.333333 0 0 1 29.141334-31.168 234.026667 234.026667 0 0 1 74.453333 171.456c0 129.6-105.066667 234.666667-234.666667 234.666666-129.621333 0-234.666667-105.066667-234.666666-234.666666 0-10.346667 0.64-20.629333 1.984-30.784zM640 554.666667v85.333333h85.333333a21.333333 21.333333 0 0 1 0 42.666667h-106.666666a21.333333 21.333333 0 0 1-21.333334-21.333334v-106.666666a21.333333 21.333333 0 0 1 42.666667 0z" fill="#3D3D3D" p-id="5263"></path></svg>