<?xml version="1.0" standalone="no"?><!DOCTYPE svg PUBLIC "-//W3C//DTD SVG 1.1//EN" "http://www.w3.org/Graphics/SVG/1.1/DTD/svg11.dtd"><svg t="1704858519519" class="icon" viewBox="0 0 1110 1024" version="1.1" xmlns="http://www.w3.org/2000/svg" p-id="4971" xmlns:xlink="http://www.w3.org/1999/xlink" width="216.796875" height="200"><path d="M1006.933333 341.333333l-341.333333 0 46.933333-93.866667c25.6-59.733333 25.6-132.266667-4.266667-187.733333C691.2 17.066667 652.8 0 618.666667 0c-34.133333 0-68.266667 17.066667-89.6 51.2l-162.133333 256C349.866667 328.533333 324.266667 341.333333 298.666667 341.333333l0 0L213.333333 341.333333 85.333333 341.333333c-46.933333 0-85.333333 38.4-85.333333 85.333333l0 512c0 46.933333 38.4 85.333333 85.333333 85.333333l128 0 85.333333 0 593.066667 0c38.4 0 72.533333-29.866667 85.333333-68.266667l115.2-512C1100.8 392.533333 1062.4 341.333333 1006.933333 341.333333zM213.333333 938.666667 85.333333 938.666667 85.333333 426.666667l128 0L213.333333 938.666667zM891.733333 938.666667 298.666667 938.666667 298.666667 426.666667l0 0c55.466667 0 106.666667-25.6 136.533333-72.533333l162.133333-256c0 0 0-4.266667 4.266667-4.266667C605.866667 89.6 610.133333 85.333333 618.666667 85.333333c4.266667 0 12.8 0 17.066667 8.533333 17.066667 38.4 21.333333 76.8 4.266667 115.2l-46.933333 93.866667c-12.8 25.6-12.8 55.466667 4.266667 81.066667 17.066667 25.6 42.666667 38.4 72.533333 38.4l341.333333 0L891.733333 938.666667z" p-id="4972"></path></svg>