<?xml version="1.0" standalone="no"?><!DOCTYPE svg PUBLIC "-//W3C//DTD SVG 1.1//EN" "http://www.w3.org/Graphics/SVG/1.1/DTD/svg11.dtd"><svg t="1708487626510" class="icon" viewBox="0 0 2901 1024" version="1.1" xmlns="http://www.w3.org/2000/svg" p-id="4812" xmlns:xlink="http://www.w3.org/1999/xlink" width="566.6015625" height="200"><path d="M492.331307 717.141333c101.141333 19.605333 188.672 7.68 231.808-14.229333 36.330667-18.453333 68.373333-48.298667 86.122666-66.666667 1.472-1.984 3.136-3.989333 5.056-5.973333 9.685333-10.176 33.493333-40.192 63.338667-90.922667 25.813333-43.882667 27.797333-98.069333 27.861333-111.914666h-0.746666s-52.736-4.885333-74.133334-7.104c-21.376-2.24-25.194667-6.293333-25.898666-12.8-0.725333-6.485333 1.706667-11.754667 6.229333-14.72 4.565333-2.922667 15.744-4.736 15.744-4.736 11.008-1.642667 52.053333-2.858667 52.053333-2.858667l46.762667-2.581333a5.568 5.568 0 0 0 1.344-2.496c1.002667-3.754667 3.712-21.184 2.922667-33.877334-0.810667-12.693333-4.245333-24.661333-3.946667-31.253333 0.32-6.592 1.621333-8.32 5.354667-10.346667 4.8-2.624 15.616 0.405333 25.6 10.026667 10.005333 9.664 17.856 25.386667 19.285333 40.789333 1.408 15.445333 1.002667 23.744 1.002667 23.744s-0.042667 0.234667-0.021334 0.554667c8.405333-0.469333 58.666667-3.221333 74.453334-3.690667 17.237333-0.512 24.704 9.749333 25.194666 18.773334 0.512 9.024-0.896 17.365333-7.658666 25.557333-6.762667 8.234667-12.906667 7.317333-12.906667 7.317333l-57.984 1.130667-58.282667-0.896c2.709333 7.893333 8.533333 28.736 6.336 57.386667a162.773333 162.773333 0 0 1-0.064 0.917333c10.24-1.173333 73.493333-7.253333 92.992 21.824 21.248 31.658667 13.162667 79.786667 11.562667 90.624-1.621333 10.837333-8.085333 66.56-30.122667 101.76-21.290667 33.962667-37.376 44.117333-37.376 44.117333s-9.173333 8.874667-21.269333 4.309334c-12.074667-4.608-23.104-12.736-25.813333-20.842667a26.688 26.688 0 0 1 1.109333-19.477333c1.856-3.776 21.76-28.672 31.445333-43.562667 9.685333-14.890667 30.592-55.68 35.776-93.632 4.394667-32.298667 1.664-34.901333 1.664-34.901333s-1.92-11.498667-17.28-13.781334c-15.466667-2.346667-40.554667-4.053333-47.936-4.330666-6.954667 29.930667-19.541333 62.144-33.813333 86.314666-10.389333 17.6-20.288 30.933333-28.928 41.621334-8.32 12.373333-92.672 131.541333-264.746667 151.552-78.72 9.173333-159.722667-6.890667-229.696-30.4l-0.085333 0.021333-0.213333-0.064c-37.013333 11.392-82.602667 21.333333-137.92 26.389333 0 0-73.408 9.749333-146.837334-17.066666 0 0 75.029333 16.256 137.685334 4.373333 0 0-160.277333-0.277333-236.117334-45.482667 0 0-4.821333-7.04 9.685334-3.797333 9.493333 2.133333 137.002667 16.725333 270.592-7.829333l8.746666 5.034666c-47.402667-22.613333-81.962667-44.288-95.381333-54.016-29.866667-21.632-154.901333-127.146667-177.493333-239.168-22.613333-112.042667 33.066667-185.898667 125.866666-198.869333 92.778667-12.992 176.810667 40.725333 201.152 60.864 33.344 27.605333 38.186667 38.976 61.312 26.517333 22.869333-12.309333 86.613333-43.306667 150.613334-33.024 64 10.304 165.290667 54.869333 122.624 204.032-43.029333 150.421333-143.872 199.936-173.44 217.258667l-9.472 5.589333-3.712-1.066666z m-94.549334-26.965333l0.853334-0.234667 1.045333 0.298667c5.461333-2.261333 10.88-4.629333 16.277333-7.082667 167.253333-76.842667 184.554667-204.8 186.346667-220.522666 1.898667-16.512 16.938667-113.642667-108.096-89.28 0 0-38.464 8.917333-72.618667 35.690666-32.64 25.621333-40.618667 24.106667-40.618666 24.106667s-9.408 5.952-48.405334-37.333333c-39.253333-43.584-104.618667-85.76-175.616-54.122667-99.989333 44.586667 19.114667 195.349333 19.114667 195.349333s75.712 97.514667 221.717333 153.130667z m2356.053334-249.088l23.125333 12.224s14.08 8.682667 7.381333 20.864c-6.165333 11.242667-25.706667 3.264-25.706666 3.264l-35.52-12.885333-37.184-7.253334s-20.864-3.2-20.437334-16.064c0.469333-13.866667 16.96-14.08 16.96-14.08l25.28 1.344 13.525334-60.906666-35.562667-2.709334s-57.514667-3.84-54.997333-20.693333c1.984-13.354667 21.333333-16.832 21.333333-16.832l7.637333-1.386667 1.365334-4.949333s2.304-6.378667 8.917333-4.565333c4.949333 1.386667 6.72 3.989333 6.613333 6.4l13.056-2.389334 1.536-5.546666s2.304-6.4 8.896-4.565334c5.397333 1.493333 6.997333 4.416 6.592 6.997334l26.837334-4.949334 8.746666-39.338666s8.384-34.709333 38.976-26.24c36.288 10.069333 23.850667 45.333333 23.850667 45.333333l-12.757333 37.077333 19.690666 17.28c0.96-2.410667 3.84-4.074667 9.194667-2.602666 6.613333 1.834667 5.333333 8.512 5.333333 8.512l-1.493333 5.546666 10.005333 8.789334c1.130667-2.133333 3.968-3.456 8.938667-2.090667 6.613333 1.834667 5.333333 8.533333 5.333333 8.533333l-1.344 4.906667 5.845334 5.141333s14.848 12.949333 9.770666 25.450667c-6.442667 15.765333-57.770667-10.538667-57.770666-10.538667l-31.744-15.893333-20.245334 58.816z m-1572.821334 129.92c6.976-13.952 10.026667-22.336 10.026667-22.336s22.506667-62.72 20.970667-109.44c-29.504 1.216-44.736-1.365333-44.736-1.365333s-46.186667-5.866667-62.506667-31.04c-16.362667-25.173333-11.306667-58.24 0.192-78.72 11.498667-20.501333 23.381333-28.821333 23.381333-28.821334s8.682667-6.101333 16.149334-8.917333c7.466667-2.858667 16.341333 2.005333 14.528 11.157333-1.834667 9.109333-6.656 13.781333-10.282667 21.696-3.626667 7.936-11.093333 25.386667-12.522667 35.52-1.408 10.133333 1.429333 24.149333 21.589334 27.989334 20.181333 3.882667 35.690667 7.125333 59.712 4.48 24-2.645333 56.874667-10.965333 66.133333-15.232 9.28-4.266667 11.925333-5.056 17.557333-3.84 5.653333 1.216 12.522667 4.266667 14.528 19.072 2.026667 14.805333-2.816 19.477333-7.466666 22.528-4.629333 3.029333-22.421333 19.050667-70.805334 23.722666l-0.490666 0.042667c5.077333 13.482667 16.597333 51.989333 5.418666 99.797333-9.536 40.725333-22.165333 68.010667-29.248 81.28 8.426667 11.328 16.938667 21.824 24.938667 30.464 25.813333 27.882667 60.245333 59.264 104.896 81.173334 0 0 15.338667 6.506667 19.349333 8.128 4.053333 1.621333 12.096 8.384 9.664 18.389333-2.389333 10.026667-17.706667 27.072-40.576 25.450667-22.869333-1.621333-61.610667-26.794667-61.610666-26.794667s-54.741333-33.621333-91.093334-83.413333c-8.042667 10.282667-17.258667 20.544-26.944 28.48-30.4 24.896-46.272 31.402667-57.578666 35.456-11.285333 4.053333-27.157333-1.621333-33.066667-14.336-5.909333-12.736-4.309333-27.349333 1.877333-32.768 6.186667-5.397333 18.304-9.706667 31.189334-15.146667 11.221333-4.693333 34.581333-22.613333 55.509333-50.645333-19.626667-40.256-31.146667-80.789333-36.416-103.04-7.253333-30.826667-9.536-62.336-9.536-62.336s-0.810667-4.202667 1.216-8.405334a11.434667 11.434667 0 0 1 7.402667-6.464c2.56-0.832 8.853333-0.704 12.501333 2.282667 3.626667 2.986667 4.693333 9.194667 4.693333 9.194667s17.365333 54.933333 34.56 87.381333c4.736 8.917333 10.496 18.944 16.896 29.354667z m-421.909333 100.245333s-51.626667 47.616-155.434667 48.682667c0 0-36.48 1.962667-26.88-17.28 5.354667-10.837333 47.296-3.904 56.448-4.352 11.306667-0.533333 80.384-3.114667 125.866667-27.050667zM1332.373973 520.533333s1.706667-8.405333 6.165334-9.728c4.416-1.301333 12.394667 0.213333 15.018666 7.616s1.408 12.992 1.408 12.992-2.453333 29.546667-11.456 48.64c-9.002667 19.050667-19.925333 35.306667-33.216 45.44-13.312 10.154667-25.557333 1.898667-30.250666-4.330666-4.693333-6.229333-8.874667-12.714667-9.152-21.525334-0.277333-8.768 5.909333-15.68 11.946666-19.328 6.08-3.626667 12.266667-5.269333 16.810667-8.384 4.586667-3.093333 18.901333-17.984 26.368-35.84 4.48-10.730667 6.357333-15.552 6.357333-15.552z m56.469334-0.298666s-0.981333-4.864 1.429333-11.157334a14.250667 14.250667 0 0 1 10.581333-9.429333c3.84-0.917333 11.2 2.346667 13.909334 6.506667 2.730667 4.138667 15.424 26.282667 19.456 32.256 4.053333 5.973333 25.536 35.925333 35.114666 46.656 9.6 10.773333 33.386667 34.709333 42.24 42.133333 8.896 7.381333 40.64 33.28 67.264 47.36 26.624 14.122667 64.64 32.384 107.413334 39.274667 42.752 6.912 83.114667 1.621333 125.461333-11.776 42.368-13.376 42.88-34.901333 76.373333-17.856 33.493333 17.066667 23.68 60.885333 0.682667 70.208-22.997333 9.344-53.653333 23.957333-105.706667 29.653333-52.032 5.653333-120.618667 0.384-201.28-30.442667-80.682667-30.848-129.493333-83.2-159.36-128.256-29.845333-45.056-33.578667-105.130667-33.578666-105.130666z m152.597333-45.866667s14.656-22.442667 17.493333-33.386667c2.816-10.965333 7.786667-15.552 11.541334-16.789333 4.330667-1.429333 16.938667 1.066667 21.184 24.426667 4.245333 23.338667-9.066667 49.493333-18.965334 62.698666-9.877333 13.184-25.813333 31.850667-31.061333 35.712-5.248 3.861333-13.909333 8.938667-27.008 2.837334-13.12-6.08-16.341333-19.477333-17.152-27.178667-0.810667-7.722667 5.653333-16.042667 11.285333-19.882667 5.653333-3.84 24.810667-17.664 32.682667-28.416z m136.341333 36.544s13.312-24.149333 31.274667-17.856c18.730667 6.570667 38.101333 23.125333 43.157333 36.736 5.034667 13.589333-8.064 26.368-12.309333 31.445333-4.224 5.077333-20.970667 25.962667-42.965333 39.573334-21.973333 13.589333-38.528 19.264-46.784 21.525333-8.277333 2.218667-18.346667 0.170667-24.021334-4.885333-5.632-5.077333-11.093333-14.208-11.285333-21.12-0.213333-6.890667 0.426667-9.92 7.893333-17.642667 0 0 9.664-11.776 19.733334-23.338667 10.090667-11.562667 23.808-28.394667 23.808-28.394666s8.085333-9.941333 11.52-16.042667z m659.776-48.490667s-0.618667 6.08 7.466667 4.864c8.064-1.216 34.474667-6.912 48-3.264 13.504 3.648 26.752 8.32 29.44 31.893334 2.837333 24.661333-23.189333 47.658667-34.88 55.573333-11.712 7.936-37.12 25.173333-91.776 43.029333-54.677333 17.856-90.389333 21.312-90.389333 21.312s-8.469333 1.621333-12.48-3.648c-4.053333-5.290667 0-17.856 1.813333-21.333333 1.813333-3.413333 16.128-32.426667 21.568-44.629333 5.461333-12.16 24.618667-56.810667 28.864-68.373334 4.224-11.584 7.317333-22.549333 8.469333-26.602666 1.002667-3.562667 8.682667-25.664 23.317334-33.536 15.061333-8.106667 23.253333-6.634667 33.749333-3.797334 10.496 2.858667 21.397333 14.805333 24.213333 25.173334 2.837333 10.346667 2.624 23.338667 2.624 23.338666zM1623.93664 267.221333s82.346667-24.021333 226.517333-30.506666c144.128-6.485333 216.746667 2.709333 291.52 24.362666 74.773333 21.632 53.248 95.786667 53.248 95.786667s-4.309333 30.293333-24.192 90.88c-19.904 60.586667-50.56 119.061333-72.618666 168.32-22.058667 49.237333 24.746667 72.490667 60.224 76.288 35.498667 3.797333 103.829333 8.661333 196.330666-4.330667 92.544-12.970667 178.858667-35.178667 223.488-56.021333 44.672-20.842667 86.613333-51.136 107.861334-82.517333 21.226667-31.36 24.725333-58.176 24.725333-58.176s1.493333-8.256 5.376-8.106667c3.776 0.128 4.394667 5.418667 4.394667 5.418667s0.448 20.288-7.616 55.978666c-7.210667 31.914667-23.68 69.824-49.493334 103.914667-25.813333 34.090667-55.914667 62.762667-94.656 80.64-38.72 17.834667-86.869333 29.909333-148.181333 42.325333-61.312 12.48-164.864 25.856-212.202667 27.477334-47.317333 1.621333-108.629333 1.066667-143.594666-4.330667-34.965333-5.397333-88.213333-12.992-108.650667-37.333333-20.437333-24.362667-10.24-58.453333-1.621333-93.098667 8.618667-34.624 57.002667-123.904 57.002666-123.904s44.672-69.269333 60.245334-119.594667c15.594667-50.346667 8.618667-81.173333-64-93.077333-72.597333-11.904-191.68-8.042667-244.928-3.989333-53.248 4.053333-127.701333 18.666667-139.584 21.12-11.904 2.432-26.837333 0.597333-34.496-11.989334-7.68-12.586667-4.672-34.602667 1.194666-46.869333 5.269333-10.965333 13.312-13.397333 13.312-13.397333l20.394667-5.269334z m1100.16 225.130667s-0.682667-3.328 0-3.328c0.725333 0 1.322667 0.896 2.048 3.754667 0.704 2.837333 6.357333 39.68 2.901333 65.642666-3.413333 25.984-5.376 45.781333-27.008 88.874667-19.498667 38.826667-21.397333 40.192-21.397333 40.192s-4.288 7.168-12.757333 5.952c-8.469333-1.216-16.106667-5.909333-13.312-12.309333 2.816-6.506667 6.464-7.978667 11.541333-13.546667 5.248-5.674667 20.586667-28.394667 20.586667-28.394667s23.402667-37.333333 31.061333-75.498666c7.68-38.144 6.357333-71.338667 6.357333-71.338667z" fill="#333303" p-id="4813"></path></svg>