<?xml version="1.0" standalone="no"?><!DOCTYPE svg PUBLIC "-//W3C//DTD SVG 1.1//EN" "http://www.w3.org/Graphics/SVG/1.1/DTD/svg11.dtd"><svg t="1708487682981" class="icon" viewBox="0 0 1024 1024" version="1.1" xmlns="http://www.w3.org/2000/svg" p-id="5412" xmlns:xlink="http://www.w3.org/1999/xlink" width="200" height="200"><path d="M832 362.666667v85.333333l82.133333 170.666667L981.333333 704H42.666667l67.2-85.333333L192 448v-85.333333H106.666667l48.768-53.333334L234.666667 192l21.333333-85.333333h85.333333l21.333334 42.666666h298.666666l21.333334-42.666666h85.333333l21.333333 85.333333 79.232 117.333333L917.333333 362.666667h-85.333333z m-42.666667 0H234.666667v85.333333h554.666666v-85.333333z m-39.573333-153.024L734.677333 149.333333h-25.642666l-21.333334 42.666667H336.298667l-21.333334-42.666667h-25.642666l-15.082667 60.309334L199.68 320H824.32l-74.538667-110.357333z m127.957333 431.744L805.184 490.666667H218.816l-72.533333 150.72-15.701334 19.946666h762.837334l-15.701334-19.946666z" fill="#3D3D3D" p-id="5413"></path><path d="M554.666667 938.666667v-85.461334c0-23.466667-19.093333-42.538667-42.666667-42.538666-23.722667 0-42.666667 19.050667-42.666667 42.538666V938.666667H21.333333l128-277.333334h725.333334l128 277.333334H554.666667z m-128-42.666667v-42.794667A85.162667 85.162667 0 0 1 512 768c47.082667 0 85.333333 38.144 85.333333 85.205333V896h338.645334l-88.618667-192H176.64l-88.618667 192H426.666667z" fill="#3D3D3D" p-id="5414"></path></svg>