<?xml version="1.0" standalone="no"?><!DOCTYPE svg PUBLIC "-//W3C//DTD SVG 1.1//EN" "http://www.w3.org/Graphics/SVG/1.1/DTD/svg11.dtd"><svg class="icon" width="200px" height="200.00px" viewBox="0 0 1024 1024" version="1.1" xmlns="http://www.w3.org/2000/svg"><path d="M511.9 116.34c66.93-56.77 115.44-81.78 186.91-81.78 151.45 0 255.21 92.07 297.96 243.37 5.5 20.32-6.37 41.27-26.63 46.99-20.26 5.72-41.34-5.93-47.27-26.13-33.99-120.27-109.68-187.44-224.06-187.44-49.81 0-84.41 18.3-140.46 66.29-2.6 2.23-17.28 14.9-21.54 18.52-14.35 12.23-35.45 12.23-49.81 0-4.26-3.62-18.94-16.29-21.54-18.52-56.06-47.99-90.66-66.29-140.47-66.29-151.29 0-248.21 121.22-248.21 296.06 0 133.13 135.9 298.61 412.21 490.46 13.45 9.3 31.26 9.22 44.64-0.19 56.92-40.24 94.78-67.7 113.12-82.03 16.71-13.06 40.84-10.1 53.9 6.61 13.06 16.71 10.1 40.84-6.61 53.9-19.63 15.33-58.17 43.3-116.07 84.24-39.75 28.05-92.79 28.28-132.78 0.55C149.9 755.9 0 573.38 0 407.41c0-213.95 127.04-372.84 324.99-372.84 71.48 0 119.98 25.01 186.91 81.77z m371.13 442.93H985.41c21.21 0 38.4 17.19 38.4 38.39 0 21.21-17.19 38.4-38.4 38.4H883.03v102.38c0 21.21-17.19 38.4-38.4 38.4-21.2 0-38.39-17.19-38.39-38.4V636.05H703.86c-21.2 0-38.39-17.19-38.39-38.4 0-21.2 17.19-38.39 38.39-38.39h102.39V456.89c0-21.21 17.19-38.4 38.39-38.4 21.21 0 38.4 17.19 38.4 38.4v102.38z m0 0" fill="#333333" /></svg>