<?xml version="1.0" standalone="no"?><!DOCTYPE svg PUBLIC "-//W3C//DTD SVG 1.1//EN" "http://www.w3.org/Graphics/SVG/1.1/DTD/svg11.dtd"><svg t="1710392136113" class="icon" viewBox="0 0 1025 1024" version="1.1" xmlns="http://www.w3.org/2000/svg" p-id="14556" xmlns:xlink="http://www.w3.org/1999/xlink" width="32.03125" height="32"><path d="M1015.91739 346.457657c0-0.598059-0.196447-0.993838-0.196447-1.591897-0.384364-2.110612-0.982423-4.175061-1.790037-6.161482l-86.875058-215.896125c-15.106589-44.725975-58.045725-72.164122-108.540289-72.360694H209.987352c-51.086852 0-90.847776 27.232982-105.159859 70.177951L11.585975 340.892917c-0.394336 1.394008-0.992458 3.183982-1.386857 5.170341C3.438197 366.936931 0.057705 388.20494 0.057705 409.678115c0 75.346787 41.352946 144.130542 107.750173 179.512682 27.234362 14.514301 59.438353 21.873344 95.622275 21.873344 60.630206-0.203723 116.89179-26.838583 155.260086-72.564416 38.170344 45.325664 93.833869 71.768405 154.469845 72.164247 60.036538-0.395904 115.701442-27.036535 153.668063-72.3622 38.372624 45.720063 94.62988 72.164247 155.660256 72.164248 36.979996-0.197952 69.579829-7.951332 97.21436-23.063755 65.403326-35.78231 105.961578-104.165958 105.961579-178.718177 0.196447-21.268009-3.380429-42.741184-9.741181-62.226556h-0.005771z m-131.406216 176.335914c-16.697169 9.143122-37.570779 13.910471-62.022834 13.910471-45.127587 0-86.080426-22.860032-110.132248-61.628497-1.788532-3.571106-4.57523-9.739738-9.942081-15.500989-6.1628-6.760984-17.098782-14.914533-35.387974-14.914533-14.712253 0-28.030373 5.963467-35.585863 15.308932-4.966681 5.56474-7.753442 11.133809-9.739739 15.31025-23.656043 38.366854-64.410868 61.424775-108.546121 61.622664-44.727543-0.197889-85.48243-23.255811-109.336363-61.820617-1.590517-3.380429-4.37295-9.14745-8.751671-13.916242-17.296671-20.66995-56.263026-19.677492-71.369678-1.590517-5.563298 6.161357-8.549391 12.32999-10.337798 16.500723-23.853995 38.372561-65.008927 61.232593-109.736469 61.430482-23.853933 0-44.331764-4.57084-60.832424-13.31812-42.346847-22.46419-68.587308-66.40306-68.587308-114.313205 0-14.112689 2.388034-28.423267 7.155321-42.339571 0.401612-0.999671 0.598059-2.190082 0.796011-3.18254l91.847509-217.086347c1.789912-5.569257 7.556933-22.465695 36.183985-22.465696h608.72478c11.727477 0.796011 32.003028 2.782433 39.16412 23.853996l85.876766 214.106087c0.400107 1.591897 0.796011 2.980322 1.190348 4.176378 4.774625 13.910471 7.161154 28.028931 7.161153 42.143187-0.400232 47.312211-26.240649 90.847964-67.791422 113.713704z m27.634594 118.483875c-20.472061 0-36.97272 16.50066-36.97272 36.974163v201.781868c0 11.534104-9.345402 20.873673-20.875116 20.873673l-695.797602 0.394336c-11.529713 0-20.87361-9.339569-20.87361-20.669887l-0.197952-198.20493c0-20.472061-16.698612-36.978554-36.979871-36.978553-20.473503 0-36.974226 16.70294-36.974225 36.978553l0.197889 198.20493c0 52.085143 42.543294 94.629817 94.827769 94.629817l695.995554-0.401612c52.086586-0.196447 94.629817-42.543231 94.629818-94.826327v-201.781868c0-20.275551-16.50066-36.974163-36.979934-36.974163z m0 0" fill="" p-id="14557"></path><path d="M783.917827 391.687983h-554.839501c-19.197853 0-34.665661-15.467746-34.665662-34.66127 0-19.197853 15.467746-34.665724 34.665662-34.665724h554.647382c19.19779 0 34.665661 15.467808 34.665661 34.665724 0.186474 19.193525-15.467808 34.661271-34.479376 34.66127h0.005834z m0 0" fill="" p-id="14558"></path></svg>