<?xml version="1.0" standalone="no"?><!DOCTYPE svg PUBLIC "-//W3C//DTD SVG 1.1//EN" "http://www.w3.org/Graphics/SVG/1.1/DTD/svg11.dtd"><svg t="1710460784372" class="icon" viewBox="0 0 1024 1024" version="1.1" xmlns="http://www.w3.org/2000/svg" p-id="11443" xmlns:xlink="http://www.w3.org/1999/xlink" width="200" height="200"><path d="M514.4064 513.0752m-450.816 0a450.816 450.816 0 1 0 901.632 0 450.816 450.816 0 1 0-901.632 0Z" fill="#3CD38E" p-id="11444"></path><path d="M576.2048 605.5936a29.45024 29.45024 0 0 1-22.1184 10.0352h-0.4096a29.35808 29.35808 0 0 1-22.2208-10.5984l-111.4112-134.144a29.3376 29.3376 0 0 1 3.84-41.3696c12.4928-10.3424 31.0272-8.6528 41.3696 3.84l89.3952 107.6736 153.856-175.4624c-51.0976-65.1776-118.8352-123.0336-172.6464-169.472a34.4576 34.4576 0 0 0-44.8-0.2048C381.184 288.8192 243.2 407.1424 243.2 546.816c0 149.4016 121.088 270.4896 270.4896 270.4896s270.4896-121.088 270.4896-270.4896c0-45.568-16.0256-89.7024-41.0624-131.5328l-166.912 190.3104z" fill="#FFFFFF" p-id="11445"></path></svg>