<?xml version="1.0" standalone="no"?><!DOCTYPE svg PUBLIC "-//W3C//DTD SVG 1.1//EN" "http://www.w3.org/Graphics/SVG/1.1/DTD/svg11.dtd"><svg t="1710460640744" class="icon" viewBox="0 0 1024 1024" version="1.1" xmlns="http://www.w3.org/2000/svg" p-id="10432" xmlns:xlink="http://www.w3.org/1999/xlink" width="200" height="200"><path d="M294.246138 552.583268a60.647003 60.647003 0 0 1-0.075809-0.833896l-0.113713-0.075809h0.113713v-0.113713l0.075809 0.113713c6.0647-0.454853 183.94994-11.750357 217.192078 164.959847l3.259776-0.075808c30.778354-176.861821 208.625689-168.068006 214.728294-167.726867l0.075809-0.075809v0.075809h0.075808l-0.113713 0.075809a62.238986 62.238986 0 0 1-0.113713 0.871801c3.752533 0 6.0647 0.151618 6.709075 0.189521l0.075808-0.075808v0.075808h0.075809l-0.113713 0.075809c-0.758088 5.875178-23.652331 169.05352-188.271038 181.334538l2.69121 141.383324-0.075808 1.326654c-0.227426 5.079186-0.151618 11.030174 0.26533 17.398108 2.387976 17.473918 7.580875 35.326879 16.374691 43.097277 1.971028 1.743601 6.0647 5.344517 18.269909 3.449298l12.546349-2.463785c168.10591-38.814082 285.571573-186.110489 284.282824-357.893123a360.167386 360.167386 0 0 0-110.301735-257.408622 370.136237 370.136237 0 0 0-262.67733-105.108836c-204.228781 1.440366-369.226532 166.400213-367.748262 367.748262 0.909705 145.666519 89.757564 276.853567 226.023798 333.78594l0.151617 0.037904a34.720409 34.720409 0 0 1 17.170683 47.683706 36.388202 36.388202 0 0 1-39.041508 33.355851 37.07048 37.07048 0 0 1-10.916461-2.463784l-0.075808 0.227426C167.266477 925.713952 58.101872 764.544542 56.964741 585.560076 55.638088 402.216606 166.735815 243.510982 326.540667 172.895128c-73.382873-66.825416-144.339866-89.226902-145.173762-89.454329v-0.113713a35.25107 35.25107 0 0 1-21.226451-19.027997 35.630114 35.630114 0 0 1-5.723561-50.564438 36.918863 36.918863 0 0 1 38.510847-12.205209V1.415728c4.775951 1.440366 115.305114 36.388202 214.083919 144.681006a460.386558 460.386558 0 0 1 101.583729-12.129401c36.843054-0.227426 72.890116 4.283195 107.800047 12.356827C715.212145 37.841834 825.930829 2.893999 830.70678 1.453633v0.113713a36.615628 36.615628 0 0 1 44.954591 23.879757 35.630114 35.630114 0 0 1-12.167305 38.889891 35.25107 35.25107 0 0 1-21.112738 18.952188v0.113713c-0.833896 0.265331-72.321551 23.273287-145.32538 89.643851a454.359762 454.359762 0 0 1 134.105685 90.022894c86.535692 84.071907 134.636346 196.344671 135.508146 316.122501 1.516175 210.937856-142.709978 391.817541-350.767101 439.804481l-15.578699 3.03235c-6.292127 1.023418-12.660062 1.516175-19.027997 1.55408-29.565414 0-49.427307-11.750357-61.632516-22.591009-43.969077-39.193125-42.945659-115.229305-42.339189-129.367637l-2.653306-140.397811c-161.283122-12.318922-186.300011-172.464913-187.133907-178.264283l-0.075809-0.075809h0.075809v-0.113713l0.075808 0.113713c0.60647-0.037904 2.956541-0.227426 6.671171-0.26533z" fill="#079E2B" p-id="10433"></path></svg>