<?xml version="1.0" standalone="no"?><!DOCTYPE svg PUBLIC "-//W3C//DTD SVG 1.1//EN" "http://www.w3.org/Graphics/SVG/1.1/DTD/svg11.dtd"><svg t="1710421432635" class="icon" viewBox="0 0 1024 1024" version="1.1" xmlns="http://www.w3.org/2000/svg" p-id="27447" xmlns:xlink="http://www.w3.org/1999/xlink" width="200" height="200"><path d="M315.942 552.467a57.647 57.647 0 0 1-0.114-0.796l-0.076-0.057 0.076-0.02v-0.075l0.076 0.076c5.613-0.418 169.472-10.98 200.06 154.415l3.033-0.057C547.347 540.407 711.168 548.617 716.8 548.94l0.076-0.076v0.076h0.076l-0.095 0.076a59.127 59.127 0 0 1-0.114 0.834c3.451 0 5.594 0.114 6.163 0.152l0.076-0.076v0.076h0.076l-0.095 0.076c-0.702 5.499-21.807 158.265-173.435 169.756l2.465 132.324-0.057 1.232c-0.228 4.76-0.152 10.354 0.247 16.29 2.18 16.364 6.959 33.07 15.056 40.334 1.82 1.63 5.594 5.025 16.84 3.242l11.567-2.294c154.87-36.333 263.054-174.213 261.897-335A339.778 339.778 0 0 0 755.902 335c-64.892-64.095-150.794-99.139-241.968-98.38-188.15 1.346-340.138 155.743-338.792 344.216a341.713 341.713 0 0 0 208.232 312.433l0.133 0.057 0.038 0.02a32.711 32.711 0 0 1 15.777 44.619 33.678 33.678 0 0 1-46.023 28.919l-0.076 0.208A419.65 419.65 0 0 1 97.337 583.34c-1.233-171.634 101.13-320.228 248.32-386.276-67.603-62.54-132.968-83.513-133.727-83.76v-0.094a32.654 32.654 0 0 1-19.532-17.787 33.697 33.697 0 0 1 30.17-58.767l0.02-0.094c4.399 1.346 106.21 34.02 197.214 135.414a417.716 417.716 0 0 1 93.582-11.378c33.944-0.19 67.13 4.04 99.31 11.606C703.715 70.637 805.716 37.926 810.097 36.599l0.038 0.094a33.621 33.621 0 0 1 41.396 22.358 33.697 33.697 0 0 1-11.226 36.409c-3.603 8.097-10.43 14.715-19.456 17.749l0.019 0.076c-0.759 0.246-66.636 21.807-133.879 83.91a418.228 418.228 0 0 1 123.544 84.272c79.701 78.697 124.018 183.808 124.814 295.936 1.403 197.405-131.47 366.725-323.129 411.648l-14.355 2.845a111.692 111.692 0 0 1-17.521 1.44c-27.25 0-45.512-10.979-56.757-21.162-40.523-36.655-39.594-107.861-39.025-121.06l-2.466-131.432C333.56 708.152 310.5 558.27 309.722 552.808l-0.076-0.057h0.076v-0.094l0.076 0.075c0.569-0.037 2.712-0.19 6.144-0.246z" fill="#29AB91" p-id="27448"></path></svg>