<?xml version="1.0" standalone="no"?><!DOCTYPE svg PUBLIC "-//W3C//DTD SVG 1.1//EN" "http://www.w3.org/Graphics/SVG/1.1/DTD/svg11.dtd"><svg t="1706001392075" class="icon" viewBox="0 0 1024 1024" version="1.1" xmlns="http://www.w3.org/2000/svg" p-id="2563" xmlns:xlink="http://www.w3.org/1999/xlink" width="200" height="200"><path d="M414.956784 476.657604H62.418817c-34.0229 0-61.700819-27.677919-61.700819-61.70082V62.418817C0.717998 28.395917 28.395917 0.716998 62.418817 0.716998h352.536967c34.0229 0 61.701819 27.677919 61.70182 61.701819v352.537967c0 34.0219-27.677919 61.700819-61.70082 61.70082zM80.034766 397.332836h317.29907V80.034766h-317.29907v317.29807zM962.295181 476.657604H609.759214c-34.0219 0-61.701819-27.677919-61.70182-61.70082V62.418817c0-34.0229 27.679919-61.701819 61.70182-61.701819h352.535967C996.319081 0.716998 1023.997 28.394917 1023.997 62.418817v352.537967c0 34.0219-27.677919 61.700819-61.701819 61.70082z m-334.921019-79.324768h317.29907V80.034766h-317.29907v317.29807zM414.956784 1023.997H62.418817C28.395917 1023.997 0.717998 996.319081 0.717998 962.294181V609.759214c0-34.0219 27.677919-61.702819 61.700819-61.70282h352.536967c34.0229 0 61.701819 27.680919 61.70182 61.70282v352.534967c0 34.0249-27.677919 61.702819-61.70082 61.702819zM80.034766 944.672232h317.29907V627.374162h-317.29907v317.29807z" fill="#666767" p-id="2564"></path><path d="M310.076092 273.388199c0 24.648928-19.977941 44.620869-44.61987 44.620869h-53.543843c-24.641928 0-44.619869-19.970941-44.619869-44.620869v-53.543843c0-24.648928 19.978941-44.620869 44.619869-44.620869h53.543843c24.641928 0 44.619869 19.970941 44.61987 44.620869v53.543843zM857.415488 273.388199c0 24.648928-19.978941 44.620869-44.619869 44.620869h-53.544843c-24.640928 0-44.619869-19.970941-44.61987-44.620869v-53.543843c0-24.648928 19.978941-44.620869 44.61987-44.620869h53.544843c24.641928 0 44.619869 19.970941 44.619869 44.620869v53.543843zM310.076092 820.727596c0 24.648928-19.977941 44.619869-44.61987 44.619869h-53.543843c-24.641928 0-44.619869-19.970941-44.619869-44.619869v-53.544844c0-24.647928 19.978941-44.618869 44.619869-44.618869h53.543843c24.641928 0 44.619869 19.970941 44.61987 44.618869v53.544844zM587.712278 1023.997c-21.898936 0-39.661884-17.754948-39.661884-39.661884V587.712278c0-21.908936 17.762948-39.663884 39.661884-39.663884h166.581512c21.898936 0 39.662884 17.754948 39.662884 39.663884v198.311419h150.716558V587.712278c0-21.908936 17.761948-39.663884 39.660884-39.663884 21.900936 0 39.662884 17.754948 39.662884 39.663884v237.973303c0 21.905936-17.761948 39.662884-39.662884 39.662884H754.29379c-21.898936 0-39.662884-17.756948-39.662884-39.662884V627.374162h-87.256744v356.960954c0 21.906936-17.762948 39.661884-39.661884 39.661884z" fill="#666767" p-id="2565"></path><path d="M984.334116 1023.997H754.29379c-21.898936 0-39.662884-17.754948-39.662884-39.661884 0-21.908936 17.763948-39.662884 39.662884-39.662884h230.040326c21.900936 0 39.662884 17.753948 39.662884 39.662884 0 21.906936-17.761948 39.661884-39.662884 39.661884z" fill="#666767" p-id="2566"></path></svg>