<?xml version="1.0" standalone="no"?><!DOCTYPE svg PUBLIC "-//W3C//DTD SVG 1.1//EN" "http://www.w3.org/Graphics/SVG/1.1/DTD/svg11.dtd"><svg t="1710421562150" class="icon" viewBox="0 0 1024 1024" version="1.1" xmlns="http://www.w3.org/2000/svg" p-id="32672" xmlns:xlink="http://www.w3.org/1999/xlink" width="200" height="200"><path d="M294.4 70.4h441.6c121.6 0 217.6 96 217.6 217.6v441.6c0 121.6-96 217.6-217.6 217.6H294.4c-121.6 0-217.6-96-217.6-217.6V294.4c-6.4-121.6 96-224 217.6-224" fill="#F3323F" p-id="32673"></path><path d="M595.2 256c-51.2-12.8-64-83.2-160-83.2 32 44.8 12.8 76.8-12.8 83.2-128 32-217.6 140.8-211.2 288 6.4 153.6 134.4 249.6 300.8 249.6s294.4-96 300.8-249.6c6.4-147.2-89.6-256-217.6-288" fill="#FFFFFF" p-id="32674"></path><path d="M768 454.4c-12.8 6.4-19.2 12.8-19.2 32 0 6.4 0 19.2-6.4 25.6-6.4 25.6-12.8 44.8-25.6 64-12.8 19.2-32 32-57.6 38.4h-44.8c-25.6-12.8-51.2-19.2-64-38.4-19.2-32-25.6-76.8-38.4-76.8-12.8 0-19.2 44.8-38.4 76.8-12.8 19.2-38.4 25.6-70.4 32h-44.8c-25.6 0-44.8-12.8-57.6-38.4-12.8-12.8-19.2-38.4-25.6-64 0-6.4-6.4-19.2-6.4-25.6 0-19.2-12.8-25.6-12.8-25.6v-32c-6.4-12.8 0-12.8 0-12.8 44.8 0 140.8-6.4 185.6 6.4 12.8 0 51.2 6.4 70.4 6.4 19.2 0 57.6-6.4 70.4-12.8 44.8-12.8 140.8-6.4 185.6-6.4 0 0 6.4 0 6.4 6.4 0 19.2-6.4 32-6.4 44.8" fill="#383D43" p-id="32675"></path><path d="M428.8 448c-19.2-6.4-51.2-6.4-70.4-6.4-12.8 0-19.2 0-25.6 6.4-19.2 6.4-19.2 19.2-19.2 38.4v19.2c6.4 32 19.2 64 51.2 70.4h32c25.6 0 38.4-6.4 44.8-19.2 44.8-64 32-102.4-12.8-108.8" fill="#F3323F" p-id="32676"></path><path d="M691.2 448c-6.4-6.4-12.8-6.4-25.6-6.4-25.6 0-57.6 0-70.4 6.4-44.8 6.4-57.6 44.8-19.2 102.4 6.4 12.8 19.2 19.2 44.8 19.2h32c32 0 44.8-38.4 51.2-70.4v-19.2c6.4-12.8 6.4-25.6-12.8-32" fill="#1D99DE" p-id="32677"></path></svg>