<?xml version="1.0" standalone="no"?><!DOCTYPE svg PUBLIC "-//W3C//DTD SVG 1.1//EN" "http://www.w3.org/Graphics/SVG/1.1/DTD/svg11.dtd"><svg t="1710421677458" class="icon" viewBox="0 0 1024 1024" version="1.1" xmlns="http://www.w3.org/2000/svg" p-id="37406" xmlns:xlink="http://www.w3.org/1999/xlink" width="200" height="200"><path d="M731.425715 639.877592L975.233263 495.828604S1023.996928 494.944736 1023.996928 543.848526v336.096342s-1.54138 50.596075-48.763665 48.019922c-0.797637-0.043116-243.807548-96.029066-243.807548-96.029066V639.877592z" fill="#FF9367" p-id="37407"></path><path d="M86.234134 355.703129h700.627375a86.231062 86.231062 0 0 1 86.231061 86.231061v495.828604a86.231062 86.231062 0 0 1-86.231061 86.231062H86.234134a86.231062 86.231062 0 0 1-86.231062-86.231062V441.93419a86.231062 86.231062 0 0 1 86.231062-86.231061z" fill="#FF9367" p-id="37408"></path><path d="M653.020122 615.172393v66.160782h104.803077v34.190616h-104.803077v72.800574h112.208169V819.195085H608.524895V582.059666H765.303743v33.112727H653.020122zM448.835747 819.195085l-75.980344-237.135419h47.297738l55.651371 195.291796L528.68571 582.059666h47.286959l-75.118034 237.135419H448.835747zM296.400788 582.059666h43.589802v237.135419h-43.589802V582.059666zM107.791899 582.059666h44.516785v206.264699h103.876093V819.195085H107.791899V582.059666z" fill="#FFFFFF" p-id="37409"></path><path d="M677.714543 174.251418c-14.077221 12.287926-35.710438 10.681873-48.160048-3.740273-9.74411-11.220817-20.027164-21.374524-30.29944-30.989287-53.571047-48.084596-114.180704-71.065174-173.151971-72.132283-58.443102-1.067109-115.258593 18.701361-161.252085 57.710138a420.980043 420.980043 0 0 0-22.182941 21.902689c-12.44961 13.89398-34.093606 14.961089-48.160048 2.134219-14.066442-12.287926-15.155109-33.662451-2.166555-47.545652a283.52773 283.52773 0 0 1 29.221551-27.787959c57.893379-49.690649 130.941867-75.333611 206.15691-73.727558 74.676099 1.595275 151.507975 30.450344 217.528632 89.755756 12.438831 11.220817 24.338717 23.508743 36.249382 36.863779 12.44961 13.89398 10.821998 35.268504-3.783387 47.556431z m-380.39755 28.779616c37.33805-31.517453 83.870486-48.084596 132.030534-47.017486 47.610325 1.067109 96.320096 19.240306 137.980478 56.63225a308.276045 308.276045 0 0 1 22.721885 22.980578 33.975038 33.975038 0 0 1-3.783388 47.545651 35.031369 35.031369 0 0 1-48.160048-3.729493c-5.410999-5.88527-10.821998-11.759761-16.771942-17.106087-29.221551-26.171127-61.687546-38.997998-93.614596-39.536942a128.096242 128.096242 0 0 0-86.026263 31.000067c-4.333111 3.729493-8.666222 7.469766-12.449609 11.748982-12.988554 13.89398-34.63255 14.961089-48.160048 2.673163s-14.616165-33.662451-2.166555-47.55643a189.557431 189.557431 0 0 1 18.399552-17.634253z" fill="#FF9367" p-id="37410"></path></svg>