<?xml version="1.0" standalone="no"?><!DOCTYPE svg PUBLIC "-//W3C//DTD SVG 1.1//EN" "http://www.w3.org/Graphics/SVG/1.1/DTD/svg11.dtd"><svg t="1710392083976" class="icon" viewBox="0 0 1024 1024" version="1.1" xmlns="http://www.w3.org/2000/svg" p-id="12576" xmlns:xlink="http://www.w3.org/1999/xlink" width="32" height="32"><path d="M649.552239 508.179104H385.910448c-11.462687 0-19.104478-7.641791-19.104478-19.104477s7.641791-19.104478 19.104478-19.104478H649.552239c11.462687 0 19.104478 7.641791 19.104477 19.104478s-9.552239 19.104478-19.104477 19.104477zM649.552239 601.791045H385.910448c-11.462687 0-19.104478-7.641791-19.104478-19.104478s7.641791-19.104478 19.104478-19.104477H649.552239c11.462687 0 19.104478 7.641791 19.104477 19.104477s-9.552239 19.104478-19.104477 19.104478z" fill="#040000" p-id="12577"></path><path d="M517.731343 722.149254c-11.462687 0-19.104478-7.641791-19.104477-19.104478V490.985075c0-11.462687 7.641791-19.104478 19.104477-19.104478s19.104478 7.641791 19.104478 19.104478v213.970149c0 9.552239-9.552239 17.19403-19.104478 17.19403z" fill="#040000" p-id="12578"></path><path d="M519.641791 506.268657c-5.731343 0-11.462687-1.910448-15.283582-7.641791L401.19403 361.074627c-5.731343-7.641791-3.820896-21.014925 3.820895-26.746269 7.641791-5.731343 21.014925-3.820896 26.746269 3.820896l103.164179 135.641791c5.731343 7.641791 3.820896 21.014925-3.820895 26.746268-3.820896 3.820896-7.641791 5.731343-11.462687 5.731344z" fill="#040000" p-id="12579"></path><path d="M513.910448 506.268657c-3.820896 0-7.641791-1.910448-11.462687-3.820896-7.641791-5.731343-9.552239-19.104478-3.820895-26.746268l103.164179-135.641792c5.731343-7.641791 19.104478-9.552239 26.746268-3.820895 7.641791 5.731343 9.552239 19.104478 3.820896 26.746269l-103.164179 135.641791c-3.820896 3.820896-9.552239 7.641791-15.283582 7.641791z" fill="#040000" p-id="12580"></path><path d="M517.731343 985.791045c-252.179104 0-458.507463-206.328358-458.507462-458.507463s206.328358-458.507463 458.507462-458.507463c112.716418 0 219.701493 40.119403 303.761194 114.626866 19.104478 17.19403 36.298507 36.298507 53.492538 55.402985 13.373134 17.19403 11.462687 40.119403-5.731344 53.492537-17.19403 13.373134-40.119403 11.462687-53.492537-5.731343-13.373134-17.19403-28.656716-32.477612-43.940298-45.850746-70.686567-61.134328-160.477612-95.522388-254.089553-95.522388-210.149254 0-382.089552 171.940299-382.089552 382.089552s171.940299 382.089552 382.089552 382.089552 382.089552-171.940299 382.089553-382.089552c0-32.477612-3.820896-64.955224-11.462687-95.522388-5.731343-21.014925 7.641791-42.029851 26.746269-45.850746 21.014925-5.731343 42.029851 7.641791 45.850746 26.746268 9.552239 38.208955 15.283582 76.41791 15.283582 116.537314 0 250.268657-206.328358 456.597015-458.507463 456.597015z" fill="#040000" p-id="12581"></path><path d="M852.059701 286.567164c-13.373134 0-26.746269-9.552239-28.656716-24.835821l-19.104478-118.447761c-1.910448-15.283582 7.641791-30.567164 22.925374-32.477612 15.283582-1.910448 30.567164 7.641791 32.477612 22.925373l19.104477 118.447761c1.910448 15.283582-7.641791 30.567164-22.925373 32.477612 0 1.910448-1.910448 1.910448-3.820896 1.910448z" fill="#040000" p-id="12582"></path></svg>